<?xml version="1.0"?>
<svg xmlns="http://www.w3.org/2000/svg" xmlns:xlink="http://www.w3.org/1999/xlink" xmlns:svgjs="http://svgjs.com/svgjs" version="1.1" width="512" height="512" x="0" y="0" viewBox="0 0 32 32" style="enable-background:new 0 0 512 512" xml:space="preserve" class=""><g><path xmlns="http://www.w3.org/2000/svg" d="m30.71 29.29-6.27-6.29a10.92 10.92 0 0 0 2.56-7 1 1 0 0 0 -2 0 9 9 0 0 1 -2 5.61l-2.57-2.61a6 6 0 0 0 1.57-4v-8a6 6 0 0 0 -12 0v1.59l-7.29-7.3a1 1 0 0 0 -1.42 1.42l28 28a1 1 0 0 0 1.42 0 1 1 0 0 0 0-1.42zm-18.71-22.29a4 4 0 0 1 8 0v8a3.94 3.94 0 0 1 -1 2.6l-7-7z" fill="#ffffff" data-original="#000000" class=""/><path xmlns="http://www.w3.org/2000/svg" d="m16.74 21-2.26-2.3a4.08 4.08 0 0 1 -2.18-2.18l-2.3-2.31v.79a6 6 0 0 0 6 6 6.13 6.13 0 0 0 .74 0z" fill="#ffffff" data-original="#000000" class=""/><path xmlns="http://www.w3.org/2000/svg" d="m19.89 24.1a9 9 0 0 1 -12.89-8.1 1 1 0 0 0 -2 0 11 11 0 0 0 10 11v3a1 1 0 0 0 2 0v-3.07a10.79 10.79 0 0 0 4.37-1.34z" fill="#ffffff" data-original="#000000" class=""/></g></svg>
